<?xml version="1.0" standalone="no"?>
<!DOCTYPE svg PUBLIC "-//W3C//DTD SVG 20010904//EN"
 "http://www.w3.org/TR/2001/REC-SVG-20010904/DTD/svg10.dtd">
<svg version="1.0" xmlns="http://www.w3.org/2000/svg"
 width="23.000000pt" height="23.000000pt" viewBox="0 0 23.000000 23.000000"
 preserveAspectRatio="xMidYMid meet">

<g transform="translate(0.000000,23.000000) scale(0.100000,-0.100000)"
fill="#000000" stroke="none">
<path d="M63 157 c-37 -58 -40 -82 -17 -115 21 -30 54 -30 47 0 l-5 23 16 -22
c22 -29 71 -31 86 -4 5 11 10 35 10 53 0 35 -23 78 -35 66 -4 -4 -18 6 -32 23
-14 16 -28 29 -31 29 -4 0 -22 -24 -39 -53z m67 -28 c0 -33 14 -38 29 -11 9
16 10 16 16 0 4 -9 5 -29 3 -45 -2 -22 -8 -28 -27 -28 -23 0 -34 11 -45 49 -5
15 -9 16 -21 6 -8 -7 -15 -21 -15 -32 0 -10 -4 -16 -10 -13 -18 11 -11 48 16
87 21 30 30 36 40 27 8 -6 14 -24 14 -40z"/>
</g>
</svg>
